# xmcd CD database file
#
# Track frame offsets:
#	150
#	17310
#	33862
#	47467
#	65142
#	81517
#	101887
#	118900
#	135767
#	155832
#
# Disc length: 2105 seconds
#
# Revision: 0
# Processed by: cddbd v1.5.1PL0 Copyright (c) Steve Scherf et al.
# Submitted via: CDex 1.51
#
DISCID=7f08370a
DTITLE=村田和人 - また明日
DYEAR=1900
DGENRE=JPop
TTITLE0=電話しても
TTITLE1=WHISKY BOY
TTITLE2=想いは風に
TTITLE3=LADY SEPTEMBER
TTITLE4=MARLAS
TTITLE5=GREYHOUND BOOGIE
TTITLE6=波まかせ風まかせ
TTITLE7=BE WITH YOU
TTITLE8=終わらない夏
TTITLE9=波まかせ風まかせ〜REPRISE〜
EXTD=
EXTT0=
EXTT1=
EXTT2=
EXTT3=
EXTT4=
EXTT5=
EXTT6=
EXTT7=
EXTT8=
EXTT9=
PLAYORDER=
